<svg xmlns="http://www.w3.org/2000/svg" xmlns:xlink="http://www.w3.org/1999/xlink" width="40" zoomAndPan="magnify" viewBox="0 0 30 30.000001" height="40" preserveAspectRatio="xMidYMid meet" version="1.0"><defs><clipPath id="87ce762e48"><path d="M 3 0.476562 L 26.929688 0.476562 L 26.929688 28.785156 L 3 28.785156 Z M 3 0.476562 " clip-rule="nonzero"/></clipPath></defs><g clip-path="url(#87ce762e48)"><path fill="#028d96" d="M 26.816406 1.574219 C 26.875 1.386719 27.023438 0.882812 26.699219 0.6875 C 26.375 0.496094 26.007812 0.867188 25.867188 1.007812 C 19.386719 7.511719 13.992188 15.074219 9.824219 23.5 C 8.78125 20.945312 7.34375 18.601562 5.542969 16.523438 C 5.46875 16.4375 5.359375 16.398438 5.242188 16.421875 C 4.832031 16.503906 3.453125 18.195312 3.125 19.144531 C 2.980469 19.5625 3 19.878906 3.1875 20.09375 C 5.277344 22.507812 6.84375 25.253906 7.847656 28.257812 C 7.902344 28.425781 8.03125 28.527344 8.191406 28.535156 C 8.199219 28.535156 8.207031 28.535156 8.214844 28.535156 C 8.40625 28.535156 8.683594 28.417969 9.398438 27.394531 C 9.757812 26.878906 10.105469 26.296875 10.167969 26.160156 C 13.765625 17.949219 18.886719 10.480469 25.386719 3.957031 C 26.019531 3.320312 26.566406 2.410156 26.816406 1.574219 Z M 26.816406 1.574219 " fill-opacity="1" fill-rule="nonzero"/></g></svg>